# xmcd CD database file
#
# Track frame offsets:
#	150
#	21594
#	42115
#	61420
#	79482
#	99887
#	118147
#	137980
#	154895
#	170515
#	188245
#	205242
#	225812
#	244622
#	266687
#
# Disc length: 3849 seconds
#
# Revision: 2
# Processed by: cddbd v1.5.2PL0 Copyright (c) Steve Scherf et al.
# Submitted via: CDex 1.70beta2
#
DISCID=cd0f070f
DTITLE=Leeds - memory
DYEAR=2004
DGENRE=Ballad
TTITLE0=굿바이
TTITLE1=사랑하기 때문에
TTITLE2=yesterday once more
TTITLE3=난 아직 모르잖아요
TTITLE4=사랑은 유리같은것
TTITLE5=Honesty
TTITLE6=친구의 친구를 사랑했네
TTITLE7=추억속의 그대
TTITLE8=You Needed Me
TTITLE9=기억속으로
TTITLE10=그저 바라볼수만 있어도
TTITLE11=Nothing's Gonna Change My Love For You
TTITLE12=이별의 그늘
TTITLE13=거리에서
TTITLE14=Killing Me Softly With His Song
EXTD=YEAR: 2004
EXTT0=
EXTT1=
EXTT2=
EXTT3=
EXTT4=
EXTT5=
EXTT6=
EXTT7=
EXTT8=
EXTT9=
EXTT10=
EXTT11=
EXTT12=
EXTT13=
EXTT14=
PLAYORDER=
